<?xml version="1.0" encoding="utf-8"?>
<svg version="1.1" xmlns:xlink="http://www.w3.org/1999/xlink" width="9px" height="10px" xmlns="http://www.w3.org/2000/svg">
  <g transform="matrix(1 0 0 1 -320 -1480 )">
    <path d="M 6.0908203125 4.51171875  C 6.5302734375 4.18619791666667  6.75 3.79340277777778  6.75 3.33333333333333  C 6.75 2.87326388888889  6.5302734375 2.48046875  6.0908203125 2.15494791666667  C 5.6513671875 1.82942708333333  5.12109375 1.66666666666667  4.5 1.66666666666667  C 3.87890625 1.66666666666667  3.3486328125 1.82942708333333  2.9091796875 2.15494791666667  C 2.4697265625 2.48046875  2.25 2.87326388888889  2.25 3.33333333333333  C 2.25 3.79340277777778  2.4697265625 4.18619791666667  2.9091796875 4.51171875  C 3.3486328125 4.83723958333333  3.87890625 5  4.5 5  C 5.12109375 5  5.6513671875 4.83723958333333  6.0908203125 4.51171875  Z M 7.681640625 0.9765625  C 8.560546875 1.62760416666667  9 2.41319444444444  9 3.33333333333333  C 9 3.80642361111111  8.9033203125 4.19487847222222  8.7099609375 4.49869791666667  L 5.5107421875 9.53776041666667  C 5.4169921875 9.68098958333333  5.27783203125 9.79383680555556  5.09326171875 9.87630208333333  C 4.90869140625 9.95876736111111  4.7109375 10  4.5 10  C 4.2890625 10  4.09130859375 9.95876736111111  3.90673828125 9.87630208333333  C 3.72216796875 9.79383680555556  3.5859375 9.68098958333333  3.498046875 9.53776041666667  L 0.2900390625 4.49869791666667  C 0.0966796875 4.19487847222222  0 3.80642361111111  0 3.33333333333333  C 0 2.41319444444444  0.439453125 1.62760416666667  1.318359375 0.9765625  C 2.197265625 0.325520833333334  3.2578125 0  4.5 0  C 5.7421875 0  6.802734375 0.325520833333334  7.681640625 0.9765625  Z " fill-rule="nonzero" fill="#555555" stroke="none" transform="matrix(1 0 0 1 320 1480 )" />
  </g>
</svg>