<?xml version="1.0" encoding="utf-8"?>
<svg version="1.1" xmlns:xlink="http://www.w3.org/1999/xlink" width="10px" height="10px" viewBox="191 1089  10 10" xmlns="http://www.w3.org/2000/svg">
  <path d="M 196 1089  C 198.8 1089  201 1091.2  201 1094  C 201 1096.8  198.8 1099  196 1099  C 193.2 1099  191 1096.8  191 1094  C 191 1091.2  193.2 1089  196 1089  Z " fill-rule="nonzero" fill="#ffffff" stroke="none" />
  <path d="M 196 1089.5  C 198.52 1089.5  200.5 1091.48  200.5 1094  C 200.5 1096.52  198.52 1098.5  196 1098.5  C 193.48 1098.5  191.5 1096.52  191.5 1094  C 191.5 1091.48  193.48 1089.5  196 1089.5  Z " stroke-width="1" stroke="#797979" fill="none" />
  <path d="M 196 1096.5  C 194.6 1096.5  193.5 1095.4  193.5 1094  C 193.5 1092.6  194.6 1091.5  196 1091.5  C 197.4 1091.5  198.5 1092.6  198.5 1094  C 198.5 1095.4  197.4 1096.5  196 1096.5  " fill-rule="nonzero" fill="#797979" stroke="none" />
</svg>