<?xml version="1.0" encoding="utf-8"?>
<svg version="1.1" xmlns:xlink="http://www.w3.org/1999/xlink" width="9px" height="9px" viewBox="138 884.5  9 9" xmlns="http://www.w3.org/2000/svg">
  <path d="M 142.5 884.5  C 145.02 884.5  147 886.48  147 889  C 147 891.52  145.02 893.5  142.5 893.5  C 139.98 893.5  138 891.52  138 889  C 138 886.48  139.98 884.5  142.5 884.5  Z " fill-rule="nonzero" fill="#ffffff" stroke="none" />
  <path d="M 142.5 885  C 144.74 885  146.5 886.76  146.5 889  C 146.5 891.24  144.74 893  142.5 893  C 140.26 893  138.5 891.24  138.5 889  C 138.5 886.76  140.26 885  142.5 885  Z " stroke-width="1" stroke="#797979" fill="none" />
  <path d="M 142.5 891.25  C 141.24 891.25  140.25 890.26  140.25 889  C 140.25 887.74  141.24 886.75  142.5 886.75  C 143.76 886.75  144.75 887.74  144.75 889  C 144.75 890.26  143.76 891.25  142.5 891.25  " fill-rule="nonzero" fill="#797979" stroke="none" />
</svg>