<?xml version="1.0" encoding="utf-8"?>
<svg version="1.1" xmlns:xlink="http://www.w3.org/1999/xlink" width="30px" height="30px" xmlns="http://www.w3.org/2000/svg">
  <g transform="matrix(1 0 0 1 -628 -2118 )">
    <path d="M 639.995561439656 2128.86474508438  L 643 2119.61803398875  L 646.004438560344 2128.86474508438  L 655.72700597584 2128.86474508438  L 647.861283707748 2134.57952682562  L 650.865722268092 2143.82623792125  L 643 2138.11145618  L 635.134277731908 2143.82623792125  L 638.138716292252 2134.57952682562  L 630.27299402416 2128.86474508438  L 639.995561439656 2128.86474508438  Z " fill-rule="nonzero" fill="#ffff00" stroke="none" />
    <path d="M 639.632290175653 2128.36474508438  L 643 2118  L 646.367709824347 2128.36474508438  L 657.265847744427 2128.36474508438  L 648.44906896004 2134.77050983125  L 651.816778784387 2145.13525491562  L 643 2138.72949016875  L 634.183221215613 2145.13525491562  L 637.55093103996 2134.77050983125  L 628.734152255573 2128.36474508438  L 639.632290175653 2128.36474508438  Z M 643 2121.2360679775  L 640.358832703658 2129.36474508438  L 631.811835792748 2129.36474508438  L 638.726501544545 2134.38854382  L 636.085334248203 2142.51722092687  L 643 2137.49342219125  L 649.914665751797 2142.51722092687  L 647.273498455455 2134.38854382  L 654.188164207252 2129.36474508438  L 645.641167296342 2129.36474508438  L 643 2121.2360679775  Z " fill-rule="nonzero" fill="#d7d7d7" stroke="none" />
  </g>
</svg>