<?xml version="1.0" encoding="utf-8"?>
<svg version="1.1" xmlns:xlink="http://www.w3.org/1999/xlink" width="17px" height="15px" xmlns="http://www.w3.org/2000/svg">
  <g transform="matrix(1 0 0 1 -850 -1891 )">
    <path d="M 858.5 1893.16551226465  C 856.8 1891.5  855.1 1891.5  854.25 1891.5  C 852.75 1891.5  850.5 1892.8275862069  850.5 1895.35  C 850.5 1901.16119296278  858.5 1905.41328537457  858.5 1905.41328537457  C 858.5 1905.41328537457  866.5 1901.16119296278  866.5 1895.35  C 866.5 1892.8275862069  864.25 1891.5  862.75 1891.5  C 861.9 1891.5  860.2 1891.5  858.5 1893.16551226465  Z " fill-rule="nonzero" fill="#ffffff" stroke="none" />
    <path d="M 858.5 1892.5  C 856.8 1891  855.1 1891  854.25 1891  C 852.55 1891  850 1892.5  850 1895.35  C 850 1901.5  858.5 1906  858.5 1906  C 858.5 1906  867 1901.5  867 1895.35  C 867 1892.5  864.45 1891  862.75 1891  C 861.9 1891  860.2 1891  858.5 1892.5  Z M 858.5 1893.83102452929  C 860.2 1892  861.9 1892  862.75 1892  C 864.05 1892  866 1893.15517241379  866 1895.35  C 866 1900.82238592556  858.5 1904.82657074914  858.5 1904.82657074914  C 858.5 1904.82657074914  851 1900.82238592556  851 1895.35  C 851 1893.15517241379  852.95 1892  854.25 1892  C 855.1 1892  856.8 1892  858.5 1893.83102452929  Z " fill-rule="nonzero" fill="#7f7f7f" stroke="none" />
  </g>
</svg>