<?xml version="1.0" encoding="utf-8"?>
<svg version="1.1" xmlns:xlink="http://www.w3.org/1999/xlink" width="22px" height="20px" xmlns="http://www.w3.org/2000/svg">
  <g transform="matrix(1 0 0 1 -628 -1281 )">
    <path d="M 639 1283.67496556386  C 636.8 1281.5  634.6 1281.5  633.5 1281.5  C 631.5 1281.5  628.5 1283.3275862069  628.5 1286.8  C 628.5 1294.6580939251  639 1300.40791874835  639 1300.40791874835  C 639 1300.40791874835  649.5 1294.6580939251  649.5 1286.8  C 649.5 1283.3275862069  646.5 1281.5  644.5 1281.5  C 643.4 1281.5  641.2 1281.5  639 1283.67496556386  Z " fill-rule="nonzero" fill="#ffffff" stroke="none" />
    <path d="M 639 1283  C 636.8 1281  634.6 1281  633.5 1281  C 631.3 1281  628 1283  628 1286.8  C 628 1295  639 1301  639 1301  C 639 1301  650 1295  650 1286.8  C 650 1283  646.7 1281  644.5 1281  C 643.4 1281  641.2 1281  639 1283  Z M 639 1284.34993112772  C 641.2 1282  643.4 1282  644.5 1282  C 646.3 1282  649 1283.65517241379  649 1286.8  C 649 1294.31618785021  639 1299.8158374967  639 1299.8158374967  C 639 1299.8158374967  629 1294.31618785021  629 1286.8  C 629 1283.65517241379  631.7 1282  633.5 1282  C 634.6 1282  636.8 1282  639 1284.34993112772  Z " fill-rule="nonzero" fill="#7f7f7f" stroke="none" />
  </g>
</svg>