<?xml version="1.0" encoding="utf-8"?>
<svg version="1.1" xmlns:xlink="http://www.w3.org/1999/xlink" width="10px" height="10px" viewBox="138 3013  10 10" xmlns="http://www.w3.org/2000/svg">
  <path d="M 143 3013  C 145.8 3013  148 3015.2  148 3018  C 148 3020.8  145.8 3023  143 3023  C 140.2 3023  138 3020.8  138 3018  C 138 3015.2  140.2 3013  143 3013  Z " fill-rule="nonzero" fill="#ffffff" stroke="none" />
  <path d="M 143 3013.5  C 145.52 3013.5  147.5 3015.48  147.5 3018  C 147.5 3020.52  145.52 3022.5  143 3022.5  C 140.48 3022.5  138.5 3020.52  138.5 3018  C 138.5 3015.48  140.48 3013.5  143 3013.5  Z " stroke-width="1" stroke="#797979" fill="none" />
  <path d="M 143 3020.5  C 141.6 3020.5  140.5 3019.4  140.5 3018  C 140.5 3016.6  141.6 3015.5  143 3015.5  C 144.4 3015.5  145.5 3016.6  145.5 3018  C 145.5 3019.4  144.4 3020.5  143 3020.5  " fill-rule="nonzero" fill="#797979" stroke="none" />
</svg>