<?xml version="1.0" encoding="utf-8"?>
<svg version="1.1" xmlns:xlink="http://www.w3.org/1999/xlink" width="9px" height="9px" viewBox="620 3013.5  9 9" xmlns="http://www.w3.org/2000/svg">
  <path d="M 624.5 3013.5  C 627.02 3013.5  629 3015.48  629 3018  C 629 3020.52  627.02 3022.5  624.5 3022.5  C 621.98 3022.5  620 3020.52  620 3018  C 620 3015.48  621.98 3013.5  624.5 3013.5  Z " fill-rule="nonzero" fill="#ffffff" stroke="none" />
  <path d="M 624.5 3014  C 626.74 3014  628.5 3015.76  628.5 3018  C 628.5 3020.24  626.74 3022  624.5 3022  C 622.26 3022  620.5 3020.24  620.5 3018  C 620.5 3015.76  622.26 3014  624.5 3014  Z " stroke-width="1" stroke="#797979" fill="none" />
  <path d="M 624.5 3020.25  C 623.24 3020.25  622.25 3019.26  622.25 3018  C 622.25 3016.74  623.24 3015.75  624.5 3015.75  C 625.76 3015.75  626.75 3016.74  626.75 3018  C 626.75 3019.26  625.76 3020.25  624.5 3020.25  " fill-rule="nonzero" fill="#797979" stroke="none" />
</svg>