<?xml version="1.0" encoding="utf-8"?>
<svg version="1.1" xmlns:xlink="http://www.w3.org/1999/xlink" width="9px" height="9px" viewBox="137 811.5  9 9" xmlns="http://www.w3.org/2000/svg">
  <path d="M 141.5 811.5  C 144.02 811.5  146 813.48  146 816  C 146 818.52  144.02 820.5  141.5 820.5  C 138.98 820.5  137 818.52  137 816  C 137 813.48  138.98 811.5  141.5 811.5  Z " fill-rule="nonzero" fill="#ffffff" stroke="none" />
  <path d="M 141.5 812  C 143.74 812  145.5 813.76  145.5 816  C 145.5 818.24  143.74 820  141.5 820  C 139.26 820  137.5 818.24  137.5 816  C 137.5 813.76  139.26 812  141.5 812  Z " stroke-width="1" stroke="#797979" fill="none" />
  <path d="M 141.5 818.25  C 140.24 818.25  139.25 817.26  139.25 816  C 139.25 814.74  140.24 813.75  141.5 813.75  C 142.76 813.75  143.75 814.74  143.75 816  C 143.75 817.26  142.76 818.25  141.5 818.25  " fill-rule="nonzero" fill="#797979" stroke="none" />
</svg>