<?xml version="1.0" encoding="utf-8"?>
<svg version="1.1" xmlns:xlink="http://www.w3.org/1999/xlink" width="9px" height="9px" viewBox="137 830.5  9 9" xmlns="http://www.w3.org/2000/svg">
  <path d="M 141.5 830.5  C 144.02 830.5  146 832.48  146 835  C 146 837.52  144.02 839.5  141.5 839.5  C 138.98 839.5  137 837.52  137 835  C 137 832.48  138.98 830.5  141.5 830.5  Z " fill-rule="nonzero" fill="#ffffff" stroke="none" />
  <path d="M 141.5 831  C 143.74 831  145.5 832.76  145.5 835  C 145.5 837.24  143.74 839  141.5 839  C 139.26 839  137.5 837.24  137.5 835  C 137.5 832.76  139.26 831  141.5 831  Z " stroke-width="1" stroke="#797979" fill="none" />
  <path d="M 141.5 837.25  C 140.24 837.25  139.25 836.26  139.25 835  C 139.25 833.74  140.24 832.75  141.5 832.75  C 142.76 832.75  143.75 833.74  143.75 835  C 143.75 836.26  142.76 837.25  141.5 837.25  " fill-rule="nonzero" fill="#797979" stroke="none" />
</svg>